 <svg  version="1.0" xmlns="http://www.w3.org/2000/svg"  width="300.000000pt" height="68.000000pt" viewBox="0 0 300.000000 68.000000"  preserveAspectRatio="xMidYMid meet">  <g transform="translate(0.000000,68.000000) scale(0.100000,-0.100000)" fill="#313276" stroke="none"> <path d="M1320 633 c0 -23 5 -43 10 -43 6 0 10 -37 10 -90 0 -53 -4 -90 -10 -90 -5 0 -10 -20 -10 -45 l0 -45 45 0 c25 0 45 5 45 10 0 6 37 10 90 10 53 0 90 -4 90 -10 0 -5 20 -10 45 -10 l45 0 0 45 c0 25 -4 45 -10 45 -6 0 -10 37 -10 90 0 53 4 90 10 90 6 0 10 20 10 43 l0 44 -45 0 c-26 0 -45 -5 -45 -11 0 -7 -32 -11 -90 -11 -58 0 -90 4 -90 11 0 6 -19 11 -45 11 l-45 0 0 -44z m276 -37 c20 -20 20 -172 0 -192 -20 -20 -172 -20 -192 0 -18 19 -20 170 -1 191 17 20 173 21 193 1z"/> <path d="M0 390 c0 -7 211 -10 614 -10 338 0 621 -3 630 -6 11 -4 16 -1 16 10 0 15 -58 16 -630 16 -413 0 -630 -3 -630 -10z"/> <path d="M1740 384 c0 -11 5 -14 16 -10 9 3 292 6 630 6 403 0 614 3 614 10 0 7 -217 10 -630 10 -572 0 -630 -1 -630 -16z"/> <path d="M0 340 c0 -7 217 -10 630 -10 413 0 630 3 630 10 0 7 -217 10 -630 10 -413 0 -630 -3 -630 -10z"/> <path d="M1740 340 c0 -7 217 -10 630 -10 413 0 630 3 630 10 0 7 -217 10 -630 10 -413 0 -630 -3 -630 -10z"/> <path d="M140 248 c-1 -7 -16 -55 -34 -107 l-33 -95 -36 105 c-31 92 -35 99 -36 64 -1 -35 47 -197 63 -213 12 -12 27 16 60 112 l33 99 33 -96 c38 -112 46 -126 59 -112 10 10 91 230 91 247 0 4 -6 8 -13 8 -8 0 -27 -43 -47 -104 -18 -58 -37 -103 -41 -101 -4 3 -10 17 -14 32 -18 74 -59 173 -71 173 -8 0 -14 -6 -14 -12z"/> <path d="M390 129 c0 -100 3 -130 13 -127 7 3 13 27 15 61 l3 57 74 0 75 0 0 -60 c0 -47 3 -60 15 -60 13 0 15 21 15 130 0 109 -2 130 -15 130 -12 0 -15 -13 -15 -57 l0 -58 -75 0 -75 0 0 58 c0 44 -3 57 -15 57 -13 0 -15 -21 -15 -131z"/> <path d="M692 138 c-29 -68 -52 -126 -52 -130 0 -20 22 -4 37 27 17 35 17 35 83 35 l66 0 13 -35 c12 -36 48 -52 37 -17 -20 63 -105 237 -117 240 -9 1 -31 -39 -67 -120z m93 26 c14 -31 25 -60 25 -65 0 -5 -24 -9 -54 -9 l-54 0 27 65 c14 36 27 65 29 65 1 0 13 -25 27 -56z"/> <path d="M860 245 c0 -11 12 -15 45 -15 l45 0 0 -115 c0 -96 3 -115 15 -115 12 0 15 19 15 115 l0 115 45 0 c33 0 45 4 45 15 0 12 -18 15 -105 15 -87 0 -105 -3 -105 -15z"/> <path d="M1080 245 c0 -11 12 -15 45 -15 l45 0 0 -115 c0 -96 3 -115 15 -115 12 0 15 19 15 115 l0 115 45 0 c33 0 45 4 45 15 0 12 -18 15 -105 15 -87 0 -105 -3 -105 -15z"/> <path d="M1320 130 c0 -109 2 -130 15 -130 12 0 15 13 15 60 l0 60 75 0 75 0 0 -60 c0 -47 3 -60 15 -60 13 0 15 21 15 130 0 109 -2 130 -15 130 -12 0 -15 -13 -15 -57 l0 -58 -75 0 -75 0 0 58 c0 44 -3 57 -15 57 -13 0 -15 -21 -15 -130z"/> <path d="M1592 134 l3 -126 79 -1 c53 0 81 4 84 11 2 8 -18 12 -67 12 l-71 0 0 45 0 45 65 0 c54 0 65 3 65 16 0 14 -9 16 -65 12 l-65 -6 0 44 0 44 70 0 c56 0 70 3 70 15 0 12 -16 15 -85 15 l-86 0 3 -126z"/> <path d="M1800 130 c0 -109 2 -130 15 -130 12 0 15 13 15 60 l0 60 60 0 c49 0 60 3 60 16 0 14 -9 16 -60 11 l-60 -5 0 44 0 44 65 0 c51 0 65 3 65 15 0 12 -16 15 -80 15 l-80 0 0 -130z"/> <path d="M2000 130 c0 -109 2 -130 15 -130 12 0 15 13 15 56 l0 55 43 -3 c39 -3 44 -6 70 -56 16 -28 35 -52 43 -52 8 0 14 2 14 5 0 13 -34 72 -53 93 -16 17 -17 22 -5 22 23 0 48 34 48 66 0 55 -32 74 -124 74 l-66 0 0 -130z m148 88 c16 -16 15 -68 0 -73 -7 -2 -37 -5 -65 -8 l-53 -4 0 48 0 49 53 0 c29 0 58 -5 65 -12z"/> <path d="M2250 130 c0 -109 2 -130 15 -130 13 0 15 21 15 130 0 109 -2 130 -15 130 -13 0 -15 -21 -15 -130z"/> <path d="M2340 133 l0 -128 81 5 c73 5 83 8 105 33 23 26 29 57 24 117 -5 63 -61 100 -155 100 l-55 0 0 -127z m155 72 c20 -19 25 -34 25 -75 0 -71 -29 -100 -100 -100 l-50 0 0 100 0 100 50 0 c41 0 56 -5 75 -25z"/> <path d="M2665 251 c-40 -17 -59 -50 -62 -109 -7 -103 54 -156 158 -135 l44 9 3 62 3 62 -46 0 c-33 0 -45 -4 -45 -15 0 -10 10 -15 30 -15 28 0 30 -2 30 -40 l0 -40 -49 0 c-74 0 -96 22 -96 98 0 76 20 102 77 102 22 0 49 -5 60 -11 13 -7 23 -8 30 -1 7 7 0 16 -20 26 -33 17 -84 20 -117 7z"/> <path d="M2870 133 l0 -128 65 3 c76 4 88 22 15 22 l-50 0 0 45 0 45 50 0 c40 0 50 3 50 16 0 14 -8 16 -50 11 l-50 -6 0 44 0 45 50 0 c38 0 50 4 50 15 0 12 -14 15 -65 15 l-65 0 0 -127z"/> </g> </svg> 